<svg width="95" height="95" viewBox="0 0 95 95" fill="none" xmlns="http://www.w3.org/2000/svg">
<path d="M47.5 95C73.7335 95 95 73.7335 95 47.5C95 21.2665 73.7335 0 47.5 0C21.2665 0 0 21.2665 0 47.5C0 73.7335 21.2665 95 47.5 95Z" fill="#FEE903"/>
<path d="M47.5003 85.4429C68.4554 85.4429 85.4429 68.4554 85.4429 47.5003C85.4429 26.5451 68.4554 9.55762 47.5003 9.55762C26.5451 9.55762 9.55762 26.5451 9.55762 47.5003C9.55762 68.4554 26.5451 85.4429 47.5003 85.4429Z" fill="#FDB441"/>
<path d="M47.5 9.55762C46.5341 9.55762 45.5784 9.5933 44.6328 9.66466C64.2196 11.1365 79.7083 27.5426 79.7083 47.5003C79.7083 67.4579 64.2254 83.8641 44.6328 85.3359C45.5784 85.4073 46.5341 85.4429 47.5 85.4429C68.421 85.4429 85.4427 68.4213 85.4427 47.5003C85.4427 26.5792 68.421 9.55762 47.5 9.55762Z" fill="#FEA613"/>
<path d="M67.9775 24.8278C67.6558 24.506 67.2739 24.2508 66.8536 24.0766C66.4333 23.9025 65.9829 23.8129 65.5279 23.8129C65.073 23.8129 64.6225 23.9025 64.2022 24.0766C63.7819 24.2508 63.4 24.506 63.0784 24.8278L51.2273 36.6789L39.3761 24.8278C38.7255 24.1848 37.847 23.8254 36.9323 23.8278C36.0177 23.8303 35.1411 24.1944 34.4939 24.8408C33.8468 25.4872 33.4816 26.3634 33.4781 27.278C33.4745 28.1927 33.833 29.0717 34.4751 29.723L46.3377 41.5856H39.336C38.4174 41.5856 37.5364 41.9505 36.8869 42.6001C36.2373 43.2496 35.8724 44.1306 35.8724 45.0492C35.8724 45.9678 36.2373 46.8488 36.8869 47.4983C37.5364 48.1478 38.4174 48.5128 39.336 48.5128H47.7618V53.9088H39.336C38.4174 53.9088 37.5364 54.2737 36.8869 54.9233C36.2373 55.5728 35.8724 56.4538 35.8724 57.3724C35.8724 58.291 36.2373 59.172 36.8869 59.8215C37.5364 60.4711 38.4174 60.836 39.336 60.836H47.7618V73.0694C47.7618 73.988 48.1267 74.869 48.7762 75.5185C49.4258 76.1681 50.3067 76.533 51.2253 76.533C52.1439 76.533 53.0249 76.1681 53.6745 75.5185C54.324 74.869 54.6889 73.988 54.6889 73.0694V60.836H63.1166C64.0352 60.836 64.9162 60.4711 65.5657 59.8215C66.2153 59.172 66.5802 58.291 66.5802 57.3724C66.5802 56.4538 66.2153 55.5728 65.5657 54.9233C64.9162 54.2737 64.0352 53.9088 63.1166 53.9088H54.6889V48.5147H63.1166C64.0352 48.5147 64.9162 48.1498 65.5657 47.5002C66.2153 46.8507 66.5802 45.9697 66.5802 45.0511C66.5802 44.1325 66.2153 43.2515 65.5657 42.602C64.9162 41.9524 64.0352 41.5875 63.1166 41.5875H56.1149L67.9775 29.723C68.6261 29.0736 68.9904 28.1933 68.9904 27.2754C68.9904 26.3575 68.6261 25.4772 67.9775 24.8278Z" fill="#FEA613"/>
<path d="M64.25 24.828C63.9285 24.5063 63.5468 24.2511 63.1266 24.077C62.7065 23.9028 62.2562 23.8132 61.8014 23.8132C61.3466 23.8132 60.8962 23.9028 60.4761 24.077C60.056 24.2511 59.6742 24.5063 59.3528 24.828L47.5017 36.6791L35.6506 24.828C34.9999 24.185 34.1214 23.8256 33.2068 23.828C32.2921 23.8305 31.4155 24.1946 30.7683 24.841C30.1212 25.4874 29.756 26.3636 29.7525 27.2783C29.7489 28.1929 30.1074 29.0719 30.7496 29.7232L42.6007 41.5858H35.6085C34.6899 41.5858 33.8089 41.9507 33.1594 42.6003C32.5098 43.2498 32.1449 44.1308 32.1449 45.0494C32.1449 45.968 32.5098 46.849 33.1594 47.4985C33.8089 48.148 34.6899 48.513 35.6085 48.513H44.0362V53.909H35.6085C34.6899 53.909 33.8089 54.2739 33.1594 54.9235C32.5098 55.573 32.1449 56.454 32.1449 57.3726C32.1449 58.2912 32.5098 59.1722 33.1594 59.8217C33.8089 60.4713 34.6899 60.8362 35.6085 60.8362H44.0362V73.0696C44.0362 73.9882 44.4011 74.8692 45.0506 75.5187C45.7002 76.1683 46.5812 76.5332 47.4998 76.5332C48.4184 76.5332 49.2993 76.1683 49.9489 75.5187C50.5984 74.8692 50.9633 73.9882 50.9633 73.0696V60.8362H59.391C60.3096 60.8362 61.1906 60.4713 61.8401 59.8217C62.4897 59.1722 62.8546 58.2912 62.8546 57.3726C62.8546 56.454 62.4897 55.573 61.8401 54.9235C61.1906 54.2739 60.3096 53.909 59.391 53.909H50.9633V48.5149H59.391C60.3096 48.5149 61.1906 48.15 61.8401 47.5004C62.4897 46.8509 62.8546 45.9699 62.8546 45.0513C62.8546 44.1327 62.4897 43.2517 61.8401 42.6022C61.1906 41.9526 60.3096 41.5877 59.391 41.5877H52.3893L64.25 29.7232C64.8991 29.074 65.2637 28.1936 65.2637 27.2756C65.2637 26.3576 64.8991 25.4771 64.25 24.828Z" fill="#FEE903"/>
</svg>
