<svg width="79" height="79" viewBox="0 0 79 79" fill="none" xmlns="http://www.w3.org/2000/svg">
<path d="M39.5 79C61.3153 79 79 61.3153 79 39.5C79 17.6848 61.3153 0 39.5 0C17.6848 0 0 17.6848 0 39.5C0 61.3153 17.6848 79 39.5 79Z" fill="url(#paint0_linear_1_376)"/>
<path d="M52.6151 46.884C52.5384 46.8025 52.4452 46.7382 52.3418 46.6954C52.2383 46.6526 52.1269 46.6324 52.0151 46.6359H47.7873C47.6754 46.6323 47.5639 46.6526 47.4604 46.6953C47.3568 46.7381 47.2636 46.8024 47.1868 46.884C47.034 47.0407 46.9497 47.2516 46.9523 47.4704V52.1937H36.1482V42.3033H44.1075C44.328 42.3003 44.5387 42.2113 44.6947 42.0554C44.8507 41.8994 44.9397 41.6888 44.9427 41.4682V38.0496C44.9463 37.9377 44.9261 37.8263 44.8833 37.7228C44.8406 37.6193 44.7763 37.5261 44.6947 37.4494C44.6171 37.3736 44.5252 37.3139 44.4245 37.2736C44.3237 37.2334 44.216 37.2133 44.1075 37.2147H36.1482V31.6039C36.1482 30.2819 36.6005 29.2122 37.5051 28.3945C38.4097 27.5768 39.6015 27.168 41.0804 27.168C41.9111 27.1771 42.7333 27.3363 43.5074 27.638C44.1353 27.8525 44.7389 28.1323 45.3082 28.473C45.5464 28.6213 45.7734 28.787 45.9872 28.9688C46.0661 29.0438 46.1615 29.0994 46.2656 29.1311C46.3698 29.1628 46.48 29.1698 46.5874 29.1515C46.6997 29.1425 46.8088 29.1099 46.9077 29.0559C47.0066 29.0019 47.093 28.9277 47.1613 28.8381L49.8494 25.5235C49.9855 25.3599 50.0511 25.1491 50.032 24.9371C50.0261 24.8351 50 24.7353 49.9552 24.6435C49.9105 24.5517 49.8479 24.4697 49.7711 24.4022C47.1614 22.2265 44.2472 21.1387 41.0285 21.1387C37.706 21.1387 34.9704 22.1043 32.8217 24.0356C30.6731 25.9669 29.5988 28.4202 29.5988 31.3956V37.215H27.1186C26.9056 37.2066 26.6979 37.2831 26.5413 37.4278C26.3846 37.5725 26.2919 37.7734 26.2834 37.9865C26.2834 38.0076 26.2834 38.0289 26.2834 38.0502V41.4688C26.2821 41.5772 26.3022 41.6848 26.3425 41.7854C26.3828 41.886 26.4425 41.9777 26.5182 42.0552C26.595 42.1367 26.6883 42.2009 26.7917 42.2436C26.8952 42.2864 27.0066 42.3067 27.1185 42.3031H29.5977V52.298H27.0662C26.8456 52.301 26.6349 52.39 26.479 52.546C26.323 52.702 26.2341 52.9127 26.2311 53.1332V57.0477C26.2269 57.1531 26.2434 57.2583 26.2798 57.3574C26.3162 57.4564 26.3718 57.5472 26.4433 57.6248C26.5148 57.7023 26.6009 57.765 26.6967 57.8093C26.7924 57.8536 26.896 57.8785 27.0014 57.8828C27.023 57.8837 27.0446 57.8837 27.0662 57.8828H52.016C52.2286 57.8914 52.4359 57.8152 52.5923 57.6709C52.7488 57.5267 52.8415 57.3262 52.8501 57.1136C52.851 57.0917 52.851 57.0696 52.8501 57.0477V47.4705C52.8517 47.3621 52.8317 47.2544 52.7914 47.1537C52.751 47.0531 52.6911 46.9614 52.6151 46.884Z" fill="white"/>
<defs>
<linearGradient id="paint0_linear_1_376" x1="39.5" y1="0" x2="39.5" y2="79" gradientUnits="userSpaceOnUse">
<stop stop-color="#FFB508"/>
<stop offset="1" stop-color="#FC2A02"/>
</linearGradient>
</defs>
</svg>
