<svg width="73" height="73" viewBox="0 0 73 73" fill="none" xmlns="http://www.w3.org/2000/svg">
<path d="M36.5 73C56.6584 73 73 56.6584 73 36.5C73 16.3416 56.6584 0 36.5 0C16.3416 0 0 16.3416 0 36.5C0 56.6584 16.3416 73 36.5 73Z" fill="url(#paint0_linear_1_380)"/>
<path d="M42.2326 34.6886C40.6278 33.8017 38.9217 33.1261 37.2324 32.425C36.2498 32.044 35.3257 31.5265 34.4874 30.8877C32.8573 29.587 33.1698 27.4754 35.0786 26.6389C35.6137 26.4239 36.183 26.3066 36.7595 26.2926C38.9377 26.1621 41.1129 26.5925 43.0773 27.5427C44.0739 28.0242 44.4032 27.8721 44.7412 26.8332C45.0959 25.7354 45.3915 24.6203 45.721 23.5139C45.9405 22.7706 45.6703 22.2807 44.9693 21.9682C43.6977 21.4 42.3576 20.9997 40.9827 20.7772C39.1752 20.4985 39.1752 20.4901 39.1666 18.6741C39.1581 16.1151 39.1581 16.1151 36.5904 16.1151C36.2187 16.1151 35.8471 16.1067 35.4754 16.1151C34.2761 16.1489 34.0733 16.36 34.0395 17.5678C34.0227 18.1083 34.0395 18.649 34.0311 19.1979C34.0227 20.8028 34.0143 20.7774 32.477 21.3348C28.7606 22.6862 26.4632 25.2201 26.2178 29.2745C25.9983 32.8641 27.8733 35.2883 30.8211 37.0535C32.6371 38.1431 34.6473 38.785 36.573 39.638C37.3265 39.9472 38.0318 40.3624 38.6678 40.8712C40.5176 42.3999 40.1791 44.9424 37.9834 45.9052C36.8205 46.4014 35.5435 46.5679 34.2923 46.3867C32.3317 46.1677 30.4264 45.5984 28.667 44.7058C27.6281 44.1653 27.3241 44.3089 26.9694 45.433C26.6652 46.4044 26.3951 47.384 26.1247 48.3638C25.7616 49.6814 25.8966 49.9939 27.1551 50.6106C28.76 51.3876 30.4745 51.7845 32.2229 52.0633C33.5917 52.2829 33.6335 52.342 33.6504 53.761C33.6588 54.4026 33.6588 55.0533 33.6673 55.6952C33.6757 56.506 34.0642 56.9784 34.9004 56.9959C35.8464 57.0127 36.8008 57.0127 37.7468 56.9875C38.5239 56.9707 38.9208 56.5484 38.9208 55.7628C38.9208 54.8843 38.9636 53.9975 38.9292 53.1191C38.8865 52.2238 39.2756 51.7677 40.137 51.5312C42.0918 51.0201 43.8339 49.902 45.1127 48.3377C48.7281 43.9457 47.3512 37.518 42.2326 34.6886Z" fill="white"/>
<defs>
<linearGradient id="paint0_linear_1_380" x1="36.5" y1="0" x2="36.5" y2="73" gradientUnits="userSpaceOnUse">
<stop stop-color="#FFB508" stop-opacity="0.38"/>
<stop offset="1" stop-color="#FF9682" stop-opacity="0.64"/>
</linearGradient>
</defs>
</svg>
