<svg width="301" height="210" viewBox="0 0 301 210" fill="none" xmlns="http://www.w3.org/2000/svg">
<g filter="url(#filter0_d_1_341)">
<path d="M6 118C6 124.627 11.3726 130 18 130H235C241.627 130 247 124.627 247 118V50C247 43.3726 241.627 38 235 38H18C11.3726 38 6 43.3726 6 50V118Z" fill="white" fill-opacity="0.94" shape-rendering="crispEdges"/>
</g>
<g filter="url(#filter1_d_1_341)">
<circle cx="219" cy="39" r="19" fill="#07D04B"/>
</g>
<path d="M213.028 39.5428L217.914 44.4285L227.143 35.2" stroke="white" stroke-width="2" stroke-linecap="square"/>
<rect x="29" y="84" width="82" height="30" rx="15" fill="#212121"/>
<path d="M50.505 101.485C50.505 102.005 50.37 102.495 50.1 102.955C49.84 103.405 49.45 103.78 48.93 104.08C48.42 104.37 47.815 104.54 47.115 104.59V105.805H46.155V104.575C45.155 104.485 44.35 104.185 43.74 103.675C43.13 103.155 42.815 102.455 42.795 101.575H45.045C45.105 102.295 45.475 102.73 46.155 102.88V100.015C45.435 99.835 44.855 99.655 44.415 99.475C43.975 99.295 43.595 99.005 43.275 98.605C42.955 98.205 42.795 97.66 42.795 96.97C42.795 96.1 43.105 95.39 43.725 94.84C44.355 94.29 45.165 93.975 46.155 93.895V92.68H47.115V93.895C48.075 93.975 48.84 94.265 49.41 94.765C49.99 95.265 50.315 95.955 50.385 96.835H48.12C48.09 96.545 47.985 96.295 47.805 96.085C47.635 95.865 47.405 95.71 47.115 95.62V98.455C47.865 98.645 48.455 98.83 48.885 99.01C49.325 99.18 49.705 99.465 50.025 99.865C50.345 100.255 50.505 100.795 50.505 101.485ZM44.985 96.865C44.985 97.195 45.085 97.465 45.285 97.675C45.485 97.875 45.775 98.04 46.155 98.17V95.575C45.795 95.625 45.51 95.76 45.3 95.98C45.09 96.2 44.985 96.495 44.985 96.865ZM47.115 102.91C47.495 102.84 47.79 102.685 48 102.445C48.22 102.205 48.33 101.915 48.33 101.575C48.33 101.245 48.225 100.98 48.015 100.78C47.805 100.58 47.505 100.415 47.115 100.285V102.91ZM56.8437 102.13C57.8037 101.33 58.5687 100.665 59.1387 100.135C59.7087 99.595 60.1837 99.035 60.5637 98.455C60.9437 97.875 61.1337 97.305 61.1337 96.745C61.1337 96.235 61.0137 95.835 60.7737 95.545C60.5337 95.255 60.1637 95.11 59.6637 95.11C59.1637 95.11 58.7787 95.28 58.5087 95.62C58.2387 95.95 58.0987 96.405 58.0887 96.985H56.0487C56.0887 95.785 56.4437 94.875 57.1137 94.255C57.7937 93.635 58.6537 93.325 59.6937 93.325C60.8337 93.325 61.7087 93.63 62.3187 94.24C62.9287 94.84 63.2337 95.635 63.2337 96.625C63.2337 97.405 63.0237 98.15 62.6037 98.86C62.1837 99.57 61.7037 100.19 61.1637 100.72C60.6237 101.24 59.9187 101.87 59.0487 102.61H63.4737V104.35H56.0637V102.79L56.8437 102.13ZM67.332 102.295L65.577 106.51H64.227L65.202 102.295H67.332ZM68.5155 102.37V100.72L73.4205 93.7H75.8655V100.54H77.1855V102.37H75.8655V104.5H73.7655V102.37H68.5155ZM73.9005 95.95L70.8255 100.54H73.9005V95.95ZM78.5225 98.89C78.5225 97.16 78.8325 95.805 79.4525 94.825C80.0825 93.845 81.1225 93.355 82.5725 93.355C84.0225 93.355 85.0575 93.845 85.6775 94.825C86.3075 95.805 86.6225 97.16 86.6225 98.89C86.6225 100.63 86.3075 101.995 85.6775 102.985C85.0575 103.975 84.0225 104.47 82.5725 104.47C81.1225 104.47 80.0825 103.975 79.4525 102.985C78.8325 101.995 78.5225 100.63 78.5225 98.89ZM84.5525 98.89C84.5525 98.15 84.5025 97.53 84.4025 97.03C84.3125 96.52 84.1225 96.105 83.8325 95.785C83.5525 95.465 83.1325 95.305 82.5725 95.305C82.0125 95.305 81.5875 95.465 81.2975 95.785C81.0175 96.105 80.8275 96.52 80.7275 97.03C80.6375 97.53 80.5925 98.15 80.5925 98.89C80.5925 99.65 80.6375 100.29 80.7275 100.81C80.8175 101.32 81.0075 101.735 81.2975 102.055C81.5875 102.365 82.0125 102.52 82.5725 102.52C83.1325 102.52 83.5575 102.365 83.8475 102.055C84.1375 101.735 84.3275 101.32 84.4175 100.81C84.5075 100.29 84.5525 99.65 84.5525 98.89ZM88.2198 98.89C88.2198 97.16 88.5298 95.805 89.1498 94.825C89.7798 93.845 90.8198 93.355 92.2698 93.355C93.7198 93.355 94.7548 93.845 95.3748 94.825C96.0048 95.805 96.3198 97.16 96.3198 98.89C96.3198 100.63 96.0048 101.995 95.3748 102.985C94.7548 103.975 93.7198 104.47 92.2698 104.47C90.8198 104.47 89.7798 103.975 89.1498 102.985C88.5298 101.995 88.2198 100.63 88.2198 98.89ZM94.2498 98.89C94.2498 98.15 94.1998 97.53 94.0998 97.03C94.0098 96.52 93.8198 96.105 93.5298 95.785C93.2498 95.465 92.8298 95.305 92.2698 95.305C91.7098 95.305 91.2848 95.465 90.9948 95.785C90.7148 96.105 90.5248 96.52 90.4248 97.03C90.3348 97.53 90.2898 98.15 90.2898 98.89C90.2898 99.65 90.3348 100.29 90.4248 100.81C90.5148 101.32 90.7048 101.735 90.9948 102.055C91.2848 102.365 91.7098 102.52 92.2698 102.52C92.8298 102.52 93.2548 102.365 93.5448 102.055C93.8348 101.735 94.0248 101.32 94.1148 100.81C94.2048 100.29 94.2498 99.65 94.2498 98.89Z" fill="white"/>
<rect x="171" y="84" width="55" height="30" rx="15" fill="#07D04B"/>
<path d="M192.04 95.5V93.565H195.655V104.5H193.495V95.5H192.04ZM208.29 96.07C209.31 96.07 210.13 96.385 210.75 97.015C211.38 97.635 211.695 98.505 211.695 99.625V104.5H209.595V99.91C209.595 99.26 209.43 98.765 209.1 98.425C208.77 98.075 208.32 97.9 207.75 97.9C207.18 97.9 206.725 98.075 206.385 98.425C206.055 98.765 205.89 99.26 205.89 99.91V104.5H203.79V99.91C203.79 99.26 203.625 98.765 203.295 98.425C202.965 98.075 202.515 97.9 201.945 97.9C201.365 97.9 200.905 98.075 200.565 98.425C200.235 98.765 200.07 99.26 200.07 99.91V104.5H197.97V96.19H200.07V97.195C200.34 96.845 200.685 96.57 201.105 96.37C201.535 96.17 202.005 96.07 202.515 96.07C203.165 96.07 203.745 96.21 204.255 96.49C204.765 96.76 205.16 97.15 205.44 97.66C205.71 97.18 206.1 96.795 206.61 96.505C207.13 96.215 207.69 96.07 208.29 96.07Z" fill="white"/>
<path d="M44.415 64.68C44.415 65.21 44.29 65.71 44.04 66.18C43.79 66.65 43.39 67.035 42.84 67.335C42.29 67.625 41.585 67.77 40.725 67.77H38.835V72H37.125V61.575H40.725C41.525 61.575 42.2 61.715 42.75 61.995C43.31 62.265 43.725 62.635 43.995 63.105C44.275 63.575 44.415 64.1 44.415 64.68ZM40.725 66.375C41.375 66.375 41.86 66.23 42.18 65.94C42.5 65.64 42.66 65.22 42.66 64.68C42.66 63.54 42.015 62.97 40.725 62.97H38.835V66.375H40.725ZM45.4759 67.83C45.4759 67 45.6459 66.265 45.9859 65.625C46.3359 64.985 46.8059 64.49 47.3959 64.14C47.9959 63.78 48.6559 63.6 49.3759 63.6C50.0259 63.6 50.5909 63.73 51.0709 63.99C51.5609 64.24 51.9509 64.555 52.2409 64.935V63.735H53.9659V72H52.2409V70.77C51.9509 71.16 51.5559 71.485 51.0559 71.745C50.5559 72.005 49.9859 72.135 49.3459 72.135C48.6359 72.135 47.9859 71.955 47.3959 71.595C46.8059 71.225 46.3359 70.715 45.9859 70.065C45.6459 69.405 45.4759 68.66 45.4759 67.83ZM52.2409 67.86C52.2409 67.29 52.1209 66.795 51.8809 66.375C51.6509 65.955 51.3459 65.635 50.9659 65.415C50.5859 65.195 50.1759 65.085 49.7359 65.085C49.2959 65.085 48.8859 65.195 48.5059 65.415C48.1259 65.625 47.8159 65.94 47.5759 66.36C47.3459 66.77 47.2309 67.26 47.2309 67.83C47.2309 68.4 47.3459 68.9 47.5759 69.33C47.8159 69.76 48.1259 70.09 48.5059 70.32C48.8959 70.54 49.3059 70.65 49.7359 70.65C50.1759 70.65 50.5859 70.54 50.9659 70.32C51.3459 70.1 51.6509 69.78 51.8809 69.36C52.1209 68.93 52.2409 68.43 52.2409 67.86ZM63.6519 63.735L58.5819 75.885H56.8119L58.4919 71.865L55.2369 63.735H57.1419L59.4669 70.035L61.8819 63.735H63.6519ZM74.9474 63.6C75.5974 63.6 76.1774 63.735 76.6874 64.005C77.2074 64.275 77.6124 64.675 77.9024 65.205C78.2024 65.735 78.3524 66.375 78.3524 67.125V72H76.6574V67.38C76.6574 66.64 76.4724 66.075 76.1024 65.685C75.7324 65.285 75.2274 65.085 74.5874 65.085C73.9474 65.085 73.4374 65.285 73.0574 65.685C72.6874 66.075 72.5024 66.64 72.5024 67.38V72H70.8074V67.38C70.8074 66.64 70.6224 66.075 70.2524 65.685C69.8824 65.285 69.3774 65.085 68.7374 65.085C68.0974 65.085 67.5874 65.285 67.2074 65.685C66.8374 66.075 66.6524 66.64 66.6524 67.38V72H64.9424V63.735H66.6524V64.68C66.9324 64.34 67.2874 64.075 67.7174 63.885C68.1474 63.695 68.6074 63.6 69.0974 63.6C69.7574 63.6 70.3474 63.74 70.8674 64.02C71.3874 64.3 71.7874 64.705 72.0674 65.235C72.3174 64.735 72.7074 64.34 73.2374 64.05C73.7674 63.75 74.3374 63.6 74.9474 63.6ZM88.1033 67.665C88.1033 67.975 88.0833 68.255 88.0433 68.505H81.7283C81.7783 69.165 82.0233 69.695 82.4633 70.095C82.9033 70.495 83.4433 70.695 84.0833 70.695C85.0033 70.695 85.6533 70.31 86.0333 69.54H87.8783C87.6283 70.3 87.1733 70.925 86.5133 71.415C85.8633 71.895 85.0533 72.135 84.0833 72.135C83.2933 72.135 82.5833 71.96 81.9533 71.61C81.3333 71.25 80.8433 70.75 80.4833 70.11C80.1333 69.46 79.9583 68.71 79.9583 67.86C79.9583 67.01 80.1283 66.265 80.4683 65.625C80.8183 64.975 81.3033 64.475 81.9233 64.125C82.5533 63.775 83.2733 63.6 84.0833 63.6C84.8633 63.6 85.5583 63.77 86.1683 64.11C86.7783 64.45 87.2533 64.93 87.5933 65.55C87.9333 66.16 88.1033 66.865 88.1033 67.665ZM86.3183 67.125C86.3083 66.495 86.0833 65.99 85.6433 65.61C85.2033 65.23 84.6583 65.04 84.0083 65.04C83.4183 65.04 82.9133 65.23 82.4933 65.61C82.0733 65.98 81.8233 66.485 81.7433 67.125H86.3183ZM93.9561 63.6C94.6061 63.6 95.1861 63.735 95.6961 64.005C96.2161 64.275 96.6211 64.675 96.9111 65.205C97.2011 65.735 97.3461 66.375 97.3461 67.125V72H95.6511V67.38C95.6511 66.64 95.4661 66.075 95.0961 65.685C94.7261 65.285 94.2211 65.085 93.5811 65.085C92.9411 65.085 92.4311 65.285 92.0511 65.685C91.6811 66.075 91.4961 66.64 91.4961 67.38V72H89.7861V63.735H91.4961V64.68C91.7761 64.34 92.1311 64.075 92.5611 63.885C93.0011 63.695 93.4661 63.6 93.9561 63.6ZM101.522 65.13V69.705C101.522 70.015 101.592 70.24 101.732 70.38C101.882 70.51 102.132 70.575 102.482 70.575H103.532V72H102.182C101.412 72 100.822 71.82 100.412 71.46C100.002 71.1 99.7973 70.515 99.7973 69.705V65.13H98.8223V63.735H99.7973V61.68H101.522V63.735H103.532V65.13H101.522ZM114.42 72L112.02 67.83H110.715V72H109.005V61.575H112.605C113.405 61.575 114.08 61.715 114.63 61.995C115.19 62.275 115.605 62.65 115.875 63.12C116.155 63.59 116.295 64.115 116.295 64.695C116.295 65.375 116.095 65.995 115.695 66.555C115.305 67.105 114.7 67.48 113.88 67.68L116.46 72H114.42ZM110.715 66.465H112.605C113.245 66.465 113.725 66.305 114.045 65.985C114.375 65.665 114.54 65.235 114.54 64.695C114.54 64.155 114.38 63.735 114.06 63.435C113.74 63.125 113.255 62.97 112.605 62.97H110.715V66.465ZM126.057 67.665C126.057 67.975 126.037 68.255 125.997 68.505H119.682C119.732 69.165 119.977 69.695 120.417 70.095C120.857 70.495 121.397 70.695 122.037 70.695C122.957 70.695 123.607 70.31 123.987 69.54H125.832C125.582 70.3 125.127 70.925 124.467 71.415C123.817 71.895 123.007 72.135 122.037 72.135C121.247 72.135 120.537 71.96 119.907 71.61C119.287 71.25 118.797 70.75 118.437 70.11C118.087 69.46 117.912 68.71 117.912 67.86C117.912 67.01 118.082 66.265 118.422 65.625C118.772 64.975 119.257 64.475 119.877 64.125C120.507 63.775 121.227 63.6 122.037 63.6C122.817 63.6 123.512 63.77 124.122 64.11C124.732 64.45 125.207 64.93 125.547 65.55C125.887 66.16 126.057 66.865 126.057 67.665ZM124.272 67.125C124.262 66.495 124.037 65.99 123.597 65.61C123.157 65.23 122.612 65.04 121.962 65.04C121.372 65.04 120.867 65.23 120.447 65.61C120.027 65.98 119.777 66.485 119.697 67.125H124.272ZM127.17 67.86C127.17 67.01 127.34 66.265 127.68 65.625C128.03 64.975 128.51 64.475 129.12 64.125C129.73 63.775 130.43 63.6 131.22 63.6C132.22 63.6 133.045 63.84 133.695 64.32C134.355 64.79 134.8 65.465 135.03 66.345H133.185C133.035 65.935 132.795 65.615 132.465 65.385C132.135 65.155 131.72 65.04 131.22 65.04C130.52 65.04 129.96 65.29 129.54 65.79C129.13 66.28 128.925 66.97 128.925 67.86C128.925 68.75 129.13 69.445 129.54 69.945C129.96 70.445 130.52 70.695 131.22 70.695C132.21 70.695 132.865 70.26 133.185 69.39H135.03C134.79 70.23 134.34 70.9 133.68 71.4C133.02 71.89 132.2 72.135 131.22 72.135C130.43 72.135 129.73 71.96 129.12 71.61C128.51 71.25 128.03 70.75 127.68 70.11C127.34 69.46 127.17 68.71 127.17 67.86ZM137.604 62.64C137.294 62.64 137.034 62.535 136.824 62.325C136.614 62.115 136.509 61.855 136.509 61.545C136.509 61.235 136.614 60.975 136.824 60.765C137.034 60.555 137.294 60.45 137.604 60.45C137.904 60.45 138.159 60.555 138.369 60.765C138.579 60.975 138.684 61.235 138.684 61.545C138.684 61.855 138.579 62.115 138.369 62.325C138.159 62.535 137.904 62.64 137.604 62.64ZM138.444 63.735V72H136.734V63.735H138.444ZM148.264 67.665C148.264 67.975 148.244 68.255 148.204 68.505H141.889C141.939 69.165 142.184 69.695 142.624 70.095C143.064 70.495 143.604 70.695 144.244 70.695C145.164 70.695 145.814 70.31 146.194 69.54H148.039C147.789 70.3 147.334 70.925 146.674 71.415C146.024 71.895 145.214 72.135 144.244 72.135C143.454 72.135 142.744 71.96 142.114 71.61C141.494 71.25 141.004 70.75 140.644 70.11C140.294 69.46 140.119 68.71 140.119 67.86C140.119 67.01 140.289 66.265 140.629 65.625C140.979 64.975 141.464 64.475 142.084 64.125C142.714 63.775 143.434 63.6 144.244 63.6C145.024 63.6 145.719 63.77 146.329 64.11C146.939 64.45 147.414 64.93 147.754 65.55C148.094 66.16 148.264 66.865 148.264 67.665ZM146.479 67.125C146.469 66.495 146.244 65.99 145.804 65.61C145.364 65.23 144.819 65.04 144.169 65.04C143.579 65.04 143.074 65.23 142.654 65.61C142.234 65.98 141.984 66.485 141.904 67.125H146.479ZM153.142 70.47L155.482 63.735H157.297L154.147 72H152.107L148.972 63.735H150.802L153.142 70.47ZM166.165 67.665C166.165 67.975 166.145 68.255 166.105 68.505H159.79C159.84 69.165 160.085 69.695 160.525 70.095C160.965 70.495 161.505 70.695 162.145 70.695C163.065 70.695 163.715 70.31 164.095 69.54H165.94C165.69 70.3 165.235 70.925 164.575 71.415C163.925 71.895 163.115 72.135 162.145 72.135C161.355 72.135 160.645 71.96 160.015 71.61C159.395 71.25 158.905 70.75 158.545 70.11C158.195 69.46 158.02 68.71 158.02 67.86C158.02 67.01 158.19 66.265 158.53 65.625C158.88 64.975 159.365 64.475 159.985 64.125C160.615 63.775 161.335 63.6 162.145 63.6C162.925 63.6 163.62 63.77 164.23 64.11C164.84 64.45 165.315 64.93 165.655 65.55C165.995 66.16 166.165 66.865 166.165 67.665ZM164.38 67.125C164.37 66.495 164.145 65.99 163.705 65.61C163.265 65.23 162.72 65.04 162.07 65.04C161.48 65.04 160.975 65.23 160.555 65.61C160.135 65.98 159.885 66.485 159.805 67.125H164.38ZM167.278 67.83C167.278 67 167.448 66.265 167.788 65.625C168.138 64.985 168.608 64.49 169.198 64.14C169.798 63.78 170.463 63.6 171.193 63.6C171.733 63.6 172.263 63.72 172.783 63.96C173.313 64.19 173.733 64.5 174.043 64.89V60.9H175.768V72H174.043V70.755C173.763 71.155 173.373 71.485 172.873 71.745C172.383 72.005 171.818 72.135 171.178 72.135C170.458 72.135 169.798 71.955 169.198 71.595C168.608 71.225 168.138 70.715 167.788 70.065C167.448 69.405 167.278 68.66 167.278 67.83ZM174.043 67.86C174.043 67.29 173.923 66.795 173.683 66.375C173.453 65.955 173.148 65.635 172.768 65.415C172.388 65.195 171.978 65.085 171.538 65.085C171.098 65.085 170.688 65.195 170.308 65.415C169.928 65.625 169.618 65.94 169.378 66.36C169.148 66.77 169.033 67.26 169.033 67.83C169.033 68.4 169.148 68.9 169.378 69.33C169.618 69.76 169.928 70.09 170.308 70.32C170.698 70.54 171.108 70.65 171.538 70.65C171.978 70.65 172.388 70.54 172.768 70.32C173.148 70.1 173.453 69.78 173.683 69.36C173.923 68.93 174.043 68.43 174.043 67.86Z" fill="#444242"/>
<path d="M117.646 95.6464C117.451 95.8417 117.451 96.1583 117.646 96.3536L120.828 99.5355C121.024 99.7308 121.34 99.7308 121.536 99.5355C121.731 99.3403 121.731 99.0237 121.536 98.8284L118.707 96L121.536 93.1716C121.731 92.9763 121.731 92.6597 121.536 92.4645C121.34 92.2692 121.024 92.2692 120.828 92.4645L117.646 95.6464ZM155 95.5H118V96.5H155V95.5Z" fill="black"/>
<path d="M155.354 107.354C155.549 107.158 155.549 106.842 155.354 106.646L152.172 103.464C151.976 103.269 151.66 103.269 151.464 103.464C151.269 103.66 151.269 103.976 151.464 104.172L154.293 107L151.464 109.828C151.269 110.024 151.269 110.34 151.464 110.536C151.66 110.731 151.976 110.731 152.172 110.536L155.354 107.354ZM118 107.5L155 107.5L155 106.5L118 106.5L118 107.5Z" fill="black"/>
<defs>
<filter id="filter0_d_1_341" x="0" y="38" width="301" height="172" filterUnits="userSpaceOnUse" color-interpolation-filters="sRGB">
<feFlood flood-opacity="0" result="BackgroundImageFix"/>
<feColorMatrix in="SourceAlpha" type="matrix" values="0 0 0 0 0 0 0 0 0 0 0 0 0 0 0 0 0 0 127 0" result="hardAlpha"/>
<feOffset dx="24" dy="50"/>
<feGaussianBlur stdDeviation="15"/>
<feComposite in2="hardAlpha" operator="out"/>
<feColorMatrix type="matrix" values="0 0 0 0 0.670588 0 0 0 0 0.745098 0 0 0 0 0.819608 0 0 0 0.25 0"/>
<feBlend mode="normal" in2="BackgroundImageFix" result="effect1_dropShadow_1_341"/>
<feBlend mode="normal" in="SourceGraphic" in2="effect1_dropShadow_1_341" result="shape"/>
</filter>
<filter id="filter1_d_1_341" x="184.622" y="0.0888882" width="92.7556" height="92.7556" filterUnits="userSpaceOnUse" color-interpolation-filters="sRGB">
<feFlood flood-opacity="0" result="BackgroundImageFix"/>
<feColorMatrix in="SourceAlpha" type="matrix" values="0 0 0 0 0 0 0 0 0 0 0 0 0 0 0 0 0 0 127 0" result="hardAlpha"/>
<feOffset dx="12" dy="7.46667"/>
<feGaussianBlur stdDeviation="13.6889"/>
<feComposite in2="hardAlpha" operator="out"/>
<feColorMatrix type="matrix" values="0 0 0 0 0.48311 0 0 0 0 0.48311 0 0 0 0 0.48311 0 0 0 0.25 0"/>
<feBlend mode="normal" in2="BackgroundImageFix" result="effect1_dropShadow_1_341"/>
<feBlend mode="normal" in="SourceGraphic" in2="effect1_dropShadow_1_341" result="shape"/>
</filter>
</defs>
</svg>
