<svg width="243" height="182" viewBox="0 0 243 182" fill="none" xmlns="http://www.w3.org/2000/svg">
<g filter="url(#filter0_d_1_302)">
<path fill-rule="evenodd" clip-rule="evenodd" d="M27.8386 42C21.2112 42 15.8386 47.3726 15.8386 54V76.1376L6 101.923L30.7958 93H176.028C182.655 93 188.028 87.6274 188.028 81V54C188.028 47.3726 182.655 42 176.028 42H27.8386Z" fill="#FBFBFB"/>
</g>
<path d="M49.976 66.192C49.976 66.7573 49.8427 67.2907 49.576 67.792C49.3093 68.2933 48.8827 68.704 48.296 69.024C47.7093 69.3333 46.9573 69.488 46.04 69.488H44.024V74H42.2V62.88H46.04C46.8933 62.88 47.6133 63.0293 48.2 63.328C48.7973 63.616 49.24 64.0107 49.528 64.512C49.8267 65.0133 49.976 65.5733 49.976 66.192ZM46.04 68C46.7333 68 47.2507 67.8453 47.592 67.536C47.9333 67.216 48.104 66.768 48.104 66.192C48.104 64.976 47.416 64.368 46.04 64.368H44.024V68H46.04ZM51.1076 69.552C51.1076 68.6667 51.289 67.8827 51.6516 67.2C52.025 66.5173 52.5263 65.9893 53.1556 65.616C53.7956 65.232 54.4996 65.04 55.2676 65.04C55.961 65.04 56.5636 65.1787 57.0756 65.456C57.5983 65.7227 58.0143 66.0587 58.3236 66.464V65.184H60.1636V74H58.3236V72.688C58.0143 73.104 57.593 73.4507 57.0596 73.728C56.5263 74.0053 55.9183 74.144 55.2356 74.144C54.4783 74.144 53.785 73.952 53.1556 73.568C52.5263 73.1733 52.025 72.6293 51.6516 71.936C51.289 71.232 51.1076 70.4373 51.1076 69.552ZM58.3236 69.584C58.3236 68.976 58.1956 68.448 57.9396 68C57.6943 67.552 57.369 67.2107 56.9636 66.976C56.5583 66.7413 56.121 66.624 55.6516 66.624C55.1823 66.624 54.745 66.7413 54.3396 66.976C53.9343 67.2 53.6036 67.536 53.3476 67.984C53.1023 68.4213 52.9796 68.944 52.9796 69.552C52.9796 70.16 53.1023 70.6933 53.3476 71.152C53.6036 71.6107 53.9343 71.9627 54.3396 72.208C54.7556 72.4427 55.193 72.56 55.6516 72.56C56.121 72.56 56.5583 72.4427 56.9636 72.208C57.369 71.9733 57.6943 71.632 57.9396 71.184C58.1956 70.7253 58.3236 70.192 58.3236 69.584ZM70.4954 65.184L65.0874 78.144H63.1994L64.9914 73.856L61.5194 65.184H63.5514L66.0314 71.904L68.6074 65.184H70.4954ZM82.5439 65.04C83.2372 65.04 83.8559 65.184 84.3999 65.472C84.9545 65.76 85.3865 66.1867 85.6959 66.752C86.0159 67.3173 86.1759 68 86.1759 68.8V74H84.3679V69.072C84.3679 68.2827 84.1705 67.68 83.7759 67.264C83.3812 66.8373 82.8425 66.624 82.1599 66.624C81.4772 66.624 80.9332 66.8373 80.5279 67.264C80.1332 67.68 79.9359 68.2827 79.9359 69.072V74H78.1279V69.072C78.1279 68.2827 77.9305 67.68 77.5359 67.264C77.1412 66.8373 76.6025 66.624 75.9199 66.624C75.2372 66.624 74.6932 66.8373 74.2879 67.264C73.8932 67.68 73.6959 68.2827 73.6959 69.072V74H71.8719V65.184H73.6959V66.192C73.9945 65.8293 74.3732 65.5467 74.8319 65.344C75.2905 65.1413 75.7812 65.04 76.3039 65.04C77.0079 65.04 77.6372 65.1893 78.1919 65.488C78.7465 65.7867 79.1732 66.2187 79.4719 66.784C79.7385 66.2507 80.1545 65.8293 80.7199 65.52C81.2852 65.2 81.8932 65.04 82.5439 65.04ZM96.5769 69.376C96.5769 69.7067 96.5555 70.0053 96.5129 70.272H89.7769C89.8302 70.976 90.0915 71.5413 90.5609 71.968C91.0302 72.3947 91.6062 72.608 92.2889 72.608C93.2702 72.608 93.9635 72.1973 94.3689 71.376H96.3369C96.0702 72.1867 95.5849 72.8533 94.8809 73.376C94.1875 73.888 93.3235 74.144 92.2889 74.144C91.4462 74.144 90.6889 73.9573 90.0169 73.584C89.3555 73.2 88.8329 72.6667 88.4489 71.984C88.0755 71.2907 87.8889 70.4907 87.8889 69.584C87.8889 68.6773 88.0702 67.8827 88.4329 67.2C88.8062 66.5067 89.3235 65.9733 89.9849 65.6C90.6569 65.2267 91.4249 65.04 92.2889 65.04C93.1209 65.04 93.8622 65.2213 94.5129 65.584C95.1635 65.9467 95.6702 66.4587 96.0329 67.12C96.3955 67.7707 96.5769 68.5227 96.5769 69.376ZM94.6729 68.8C94.6622 68.128 94.4222 67.5893 93.9529 67.184C93.4835 66.7787 92.9022 66.576 92.2089 66.576C91.5795 66.576 91.0409 66.7787 90.5929 67.184C90.1449 67.5787 89.8782 68.1173 89.7929 68.8H94.6729ZM102.82 65.04C103.513 65.04 104.132 65.184 104.676 65.472C105.231 65.76 105.663 66.1867 105.972 66.752C106.281 67.3173 106.436 68 106.436 68.8V74H104.628V69.072C104.628 68.2827 104.431 67.68 104.036 67.264C103.641 66.8373 103.103 66.624 102.42 66.624C101.737 66.624 101.193 66.8373 100.788 67.264C100.393 67.68 100.196 68.2827 100.196 69.072V74H98.3719V65.184H100.196V66.192C100.495 65.8293 100.873 65.5467 101.332 65.344C101.801 65.1413 102.297 65.04 102.82 65.04ZM110.891 66.672V71.552C110.891 71.8827 110.965 72.1227 111.115 72.272C111.275 72.4107 111.541 72.48 111.915 72.48H113.035V74H111.595C110.773 74 110.144 73.808 109.707 73.424C109.269 73.04 109.051 72.416 109.051 71.552V66.672H108.011V65.184H109.051V62.992H110.891V65.184H113.035V66.672H110.891ZM122.536 74.112C121.789 74.112 121.117 73.984 120.52 73.728C119.923 73.4613 119.453 73.088 119.112 72.608C118.771 72.128 118.6 71.568 118.6 70.928H120.552C120.595 71.408 120.781 71.8027 121.112 72.112C121.453 72.4213 121.928 72.576 122.536 72.576C123.165 72.576 123.656 72.4267 124.008 72.128C124.36 71.8187 124.536 71.424 124.536 70.944C124.536 70.5707 124.424 70.2667 124.2 70.032C123.987 69.7973 123.715 69.616 123.384 69.488C123.064 69.36 122.616 69.2213 122.04 69.072C121.315 68.88 120.723 68.688 120.264 68.496C119.816 68.2933 119.432 67.984 119.112 67.568C118.792 67.152 118.632 66.5973 118.632 65.904C118.632 65.264 118.792 64.704 119.112 64.224C119.432 63.744 119.88 63.376 120.456 63.12C121.032 62.864 121.699 62.736 122.456 62.736C123.533 62.736 124.413 63.008 125.096 63.552C125.789 64.0853 126.173 64.8213 126.248 65.76H124.232C124.2 65.3547 124.008 65.008 123.656 64.72C123.304 64.432 122.84 64.288 122.264 64.288C121.741 64.288 121.315 64.4213 120.984 64.688C120.653 64.9547 120.488 65.3387 120.488 65.84C120.488 66.1813 120.589 66.464 120.792 66.688C121.005 66.9013 121.272 67.072 121.592 67.2C121.912 67.328 122.349 67.4667 122.904 67.616C123.64 67.8187 124.237 68.0213 124.696 68.224C125.165 68.4267 125.56 68.7413 125.88 69.168C126.211 69.584 126.376 70.144 126.376 70.848C126.376 71.4133 126.221 71.9467 125.912 72.448C125.613 72.9493 125.171 73.3547 124.584 73.664C124.008 73.9627 123.325 74.112 122.536 74.112ZM136.608 69.376C136.608 69.7067 136.587 70.0053 136.544 70.272H129.808C129.861 70.976 130.123 71.5413 130.592 71.968C131.061 72.3947 131.637 72.608 132.32 72.608C133.301 72.608 133.995 72.1973 134.4 71.376H136.368C136.101 72.1867 135.616 72.8533 134.912 73.376C134.219 73.888 133.355 74.144 132.32 74.144C131.477 74.144 130.72 73.9573 130.048 73.584C129.387 73.2 128.864 72.6667 128.48 71.984C128.107 71.2907 127.92 70.4907 127.92 69.584C127.92 68.6773 128.101 67.8827 128.464 67.2C128.837 66.5067 129.355 65.9733 130.016 65.6C130.688 65.2267 131.456 65.04 132.32 65.04C133.152 65.04 133.893 65.2213 134.544 65.584C135.195 65.9467 135.701 66.4587 136.064 67.12C136.427 67.7707 136.608 68.5227 136.608 69.376ZM134.704 68.8C134.693 68.128 134.453 67.5893 133.984 67.184C133.515 66.7787 132.933 66.576 132.24 66.576C131.611 66.576 131.072 66.7787 130.624 67.184C130.176 67.5787 129.909 68.1173 129.824 68.8H134.704ZM142.851 65.04C143.544 65.04 144.163 65.184 144.707 65.472C145.262 65.76 145.694 66.1867 146.003 66.752C146.312 67.3173 146.467 68 146.467 68.8V74H144.659V69.072C144.659 68.2827 144.462 67.68 144.067 67.264C143.672 66.8373 143.134 66.624 142.451 66.624C141.768 66.624 141.224 66.8373 140.819 67.264C140.424 67.68 140.227 68.2827 140.227 69.072V74H138.403V65.184H140.227V66.192C140.526 65.8293 140.904 65.5467 141.363 65.344C141.832 65.1413 142.328 65.04 142.851 65.04ZM150.922 66.672V71.552C150.922 71.8827 150.996 72.1227 151.146 72.272C151.306 72.4107 151.572 72.48 151.946 72.48H153.066V74H151.626C150.804 74 150.175 73.808 149.738 73.424C149.3 73.04 149.082 72.416 149.082 71.552V66.672H148.042V65.184H149.082V62.992H150.922V65.184H153.066V66.672H150.922Z" fill="#444242"/>
<g filter="url(#filter1_d_1_302)">
<circle cx="167.028" cy="39" r="19" fill="#07D04B"/>
</g>
<path d="M161.057 39.5428L165.942 44.4285L175.171 35.2" stroke="white" stroke-width="2" stroke-linecap="square"/>
<defs>
<filter id="filter0_d_1_302" x="0" y="42" width="242.028" height="139.923" filterUnits="userSpaceOnUse" color-interpolation-filters="sRGB">
<feFlood flood-opacity="0" result="BackgroundImageFix"/>
<feColorMatrix in="SourceAlpha" type="matrix" values="0 0 0 0 0 0 0 0 0 0 0 0 0 0 0 0 0 0 127 0" result="hardAlpha"/>
<feOffset dx="24" dy="50"/>
<feGaussianBlur stdDeviation="15"/>
<feComposite in2="hardAlpha" operator="out"/>
<feColorMatrix type="matrix" values="0 0 0 0 0.670588 0 0 0 0 0.745098 0 0 0 0 0.819608 0 0 0 0.25 0"/>
<feBlend mode="normal" in2="BackgroundImageFix" result="effect1_dropShadow_1_302"/>
<feBlend mode="normal" in="SourceGraphic" in2="effect1_dropShadow_1_302" result="shape"/>
</filter>
<filter id="filter1_d_1_302" x="132.651" y="0.0888882" width="92.7556" height="92.7556" filterUnits="userSpaceOnUse" color-interpolation-filters="sRGB">
<feFlood flood-opacity="0" result="BackgroundImageFix"/>
<feColorMatrix in="SourceAlpha" type="matrix" values="0 0 0 0 0 0 0 0 0 0 0 0 0 0 0 0 0 0 127 0" result="hardAlpha"/>
<feOffset dx="12" dy="7.46667"/>
<feGaussianBlur stdDeviation="13.6889"/>
<feComposite in2="hardAlpha" operator="out"/>
<feColorMatrix type="matrix" values="0 0 0 0 0.48311 0 0 0 0 0.48311 0 0 0 0 0.48311 0 0 0 0.25 0"/>
<feBlend mode="normal" in2="BackgroundImageFix" result="effect1_dropShadow_1_302"/>
<feBlend mode="normal" in="SourceGraphic" in2="effect1_dropShadow_1_302" result="shape"/>
</filter>
</defs>
</svg>
