<svg xmlns="http://www.w3.org/2000/svg" xmlns:xlink="http://www.w3.org/1999/xlink" width="144.39" height="57.705" viewBox="0 0 144.39 57.705">
  <defs>
    <clipPath id="clip-path">
      <path id="Path_1" data-name="Path 1" d="M820.67,69.17V77.3l15,8.66.05.03c1.24.72,2.47.98,2.47,2.56,0,1.56-1.27,1.84-2.51,2.56h-.01l-10.75,6.21a2.154,2.154,0,0,1-.8.16,2.1,2.1,0,0,1-1.44-3.63l.83-.48h0l8.35-4.82-14.41-8.32a2.216,2.216,0,0,1-.93-1.6h-.01V69.18h4.16Z" transform="translate(-816.53 -69.17)"/>
    </clipPath>
    <linearGradient id="linear-gradient" x1="0.062" y1="0.174" x2="0.867" y2="0.773" gradientUnits="objectBoundingBox">
      <stop offset="0" stop-color="#ff00ba"/>
      <stop offset="0.42" stop-color="#ff6e00"/>
      <stop offset="1" stop-color="#f0c812"/>
    </linearGradient>
    <clipPath id="clip-path-2">
      <path id="Path_2" data-name="Path 2" d="M827.58,81.29l3.34-1.82-14.24-8.79-.16-1.22V67.73a1.434,1.434,0,0,1,1.29-1.02,5.982,5.982,0,0,1,2.06,1.04l17.59,10.9a1.425,1.425,0,0,1,.38.96,1.365,1.365,0,0,1-.43,1.01l-5.65,3.08Zm-13.54,7.39,9.3-5.07,4.19,2.42-10.84,5.91-.73.4a2.11,2.11,0,0,1-2.72-2.01A2.081,2.081,0,0,1,814.04,88.68Z" transform="translate(-813.24 -66.71)"/>
    </clipPath>
    <linearGradient id="linear-gradient-2" x1="0.933" y1="0.662" x2="0.162" y2="0.373" gradientUnits="objectBoundingBox">
      <stop offset="0" stop-color="#00c3ff"/>
      <stop offset="0.362" stop-color="#6774e3"/>
      <stop offset="0.674" stop-color="#b936cd"/>
      <stop offset="0.893" stop-color="#eb0fbf"/>
      <stop offset="1" stop-color="#ff00ba"/>
    </linearGradient>
  </defs>
  <g id="Group_12" data-name="Group 12" transform="translate(581.13 875)">
    <g id="Group_5" data-name="Group 5" transform="translate(-1394.37 -928.545)">
      <g id="Group_2" data-name="Group 2">
        <g id="Group_1" data-name="Group 1" transform="translate(816.53 69.17)" clip-path="url(#clip-path)">
          <rect id="Rectangle_3" data-name="Rectangle 3" width="21.66" height="28.3" fill="url(#linear-gradient)"/>
        </g>
      </g>
      <g id="Group_4" data-name="Group 4">
        <g id="Group_3" data-name="Group 3" transform="translate(813.24 66.71)" clip-path="url(#clip-path-2)">
          <rect id="Rectangle_4" data-name="Rectangle 4" width="24.61" height="25.72" fill="url(#linear-gradient-2)"/>
        </g>
      </g>
      <path id="Path_3" data-name="Path 3" d="M881.81,57.49c0,5.32,8.01,5.32,8.01,0,0-5.26-8.01-5.26-8.01,0m7.2,8.95V97.43h-6.45V66.44Zm30.5,6.12,3.08-3.6-4.5-3.48-2.71,3.31a16.419,16.419,0,0,0-8.8-2.54,15.852,15.852,0,0,0-16.09,15.6,15.126,15.126,0,0,0,1.58,6.74h0a12.288,12.288,0,0,0,.62,1.26h.08l.04.06.03.04c.06.09.12.18.18.28l.03.04c.06.09.12.18.18.26l.04.06c.06.09.13.18.19.27l.02.02c.07.09.14.19.21.28l.01.01h0l.01.01c.06.08.13.17.2.25l.05.06c.07.08.13.16.2.24l.04.04.21.24.04.04c.07.08.14.15.21.23l.07.07c.06.07.12.13.19.2l.08.08c.06.07.13.13.2.2l.06.06c.07.07.14.13.21.19l.08.07c.07.06.14.13.21.19l.08.07.21.18.1.08c.07.06.14.11.2.17l.08.06c.07.06.15.12.22.17l.08.06.22.16.08.06c.08.05.15.11.23.16l.1.07c.07.05.15.1.22.15h0a16.378,16.378,0,0,0,9.04,2.69,17.043,17.043,0,0,0,2.88-.25l.33-.06.08-.01.3-.06.08-.02a3,3,0,0,0,.32-.08l.05-.01c.11-.03.21-.05.31-.08l.09-.02c.1-.03.2-.06.29-.09l.08-.02.3-.09.08-.03c.1-.03.19-.06.29-.1l.09-.03c.09-.03.18-.07.27-.1l.09-.03c.09-.03.18-.07.27-.11l.1-.04c.09-.04.18-.07.27-.11l.08-.04.27-.12.1-.05c.09-.04.18-.09.27-.13l.07-.03c.09-.04.18-.09.27-.14l.07-.04c.09-.05.17-.09.25-.14l.1-.06a1.588,1.588,0,0,0,.22-.13l.11-.06c.08-.05.15-.09.23-.14l.11-.07a2.264,2.264,0,0,0,.2-.13l.12-.08c.07-.05.14-.1.22-.15l.09-.06c.08-.06.16-.11.24-.17a15.793,15.793,0,0,0,5.01-5.96,12.463,12.463,0,0,0,1.45-5.52c.02-.34.04-.69.04-1.04A15.4,15.4,0,0,0,919.51,72.56Zm-12.63.59c5.1,0,9.6,3.3,9.6,9.12,0,5.34-4.14,9.06-9.6,9.06-5.34,0-9.78-3.18-9.78-9.06C897.1,76.09,901.84,73.15,906.88,73.15Zm14.31,15.26Zm30.13-17.14c-1.9-3.42-5.99-5.44-10.27-5.44-8.68,0-15.59,5.63-15.59,15.72,0,10.27,6.67,15.96,15.47,15.9,3.73,0,8.38-1.83,10.4-5.69l.31,4.89h5.99V66.5h-6.12Zm-9.78.31c13.03,0,13.03,20,0,20-5.38,0-9.78-3.79-9.78-10.03C931.75,75.37,936.15,71.58,941.54,71.58ZM854.9,66.57v5.89h14.9L853.83,94.8v2.63h5.21l7.35-10.02,12.86-17.84V66.56H854.9Z" fill="#030f3b"/>
      <path id="Path_4" data-name="Path 4" d="M865.14,97.43h13.03V91.45h-8.61Zm48.68,3.85a4.209,4.209,0,0,1,.04.62c0,3.26-3.77,4.7-7.3,4.7-3.74-.05-7.29-1.88-7.31-5.32h-4.79c-.07,6.24,4.69,9.97,12.1,9.97,6.14,0,12.28-3.12,12.28-9.35,0-.2-.01-.41-.02-.62Z" fill="#00c3ff" fill-rule="evenodd"/>
    </g>
  </g>
</svg>
