<svg width="73" height="73" viewBox="0 0 73 73" fill="none" xmlns="http://www.w3.org/2000/svg">
<path d="M36.5 67.8672C53.1937 67.8672 66.7266 54.3343 66.7266 37.6406C66.7266 20.947 53.1937 7.41406 36.5 7.41406C19.8063 7.41406 6.27344 20.947 6.27344 37.6406C6.27344 54.3343 19.8063 67.8672 36.5 67.8672Z" fill="white"/>
<path d="M66.1562 37.6406C66.1562 24.1037 57.0358 12.6644 44.6201 9.12386C42.7301 8.7543 40.7796 8.55469 38.7812 8.55469C22.0882 8.55469 8.55469 22.0882 8.55469 38.7812C8.55469 47.6473 12.3735 55.6226 18.4542 61.1512C23.457 65.0008 29.7144 67.2969 36.5 67.2969C52.8531 67.2969 66.1562 53.9938 66.1562 37.6406Z" fill="#FFE57F"/>
<path d="M48.8782 10.0663C58.1606 15.2265 64.4454 25.1271 64.4454 36.5003C64.4454 53.1933 50.9119 66.7268 34.2189 66.7268C29.8069 66.7268 25.6197 65.7733 21.8408 64.0749C26.1832 66.4884 31.1803 67.8675 36.5001 67.8675C53.1932 67.8675 66.7267 54.3339 66.7267 37.6409C66.7267 25.3598 59.397 14.7976 48.8782 10.0663Z" fill="#FFD740"/>
<path d="M36.5 68.4375C19.5184 68.4375 5.70312 54.6222 5.70312 37.6406C5.70312 20.659 19.5184 6.84375 36.5 6.84375C53.4816 6.84375 67.2969 20.659 67.2969 37.6406C67.2969 54.6222 53.4816 68.4375 36.5 68.4375ZM36.5 7.98438C20.1469 7.98438 6.84375 21.2875 6.84375 37.6406C6.84375 53.9938 20.1469 67.2969 36.5 67.2969C52.8531 67.2969 66.1562 53.9938 66.1562 37.6406C66.1562 21.2875 52.8531 7.98438 36.5 7.98438Z" fill="#37474F"/>
<path d="M36.5 63.3047C50.6739 63.3047 62.1641 51.8145 62.1641 37.6406C62.1641 23.4668 50.6739 11.9766 36.5 11.9766C22.3261 11.9766 10.8359 23.4668 10.8359 37.6406C10.8359 51.8145 22.3261 63.3047 36.5 63.3047Z" fill="#FFD740"/>
<path d="M13.1172 38.7812C13.1172 24.6078 24.6078 13.1172 38.7812 13.1172C42.4449 13.1172 45.9273 13.8905 49.08 15.2753C45.3627 13.1788 41.0728 11.9766 36.5 11.9766C22.3266 11.9766 10.8359 23.4672 10.8359 37.6406C10.8359 48.1503 17.1561 57.1784 26.2013 61.1466C18.3937 56.7461 13.1172 48.3819 13.1172 38.7812Z" fill="#FFCA28"/>
<path d="M46.7986 14.1348C54.6062 18.5353 59.8827 26.8995 59.8827 36.5001C59.8827 50.6735 48.392 62.1642 34.2186 62.1642C30.5549 62.1642 27.0726 61.3909 23.9199 60.0061C27.6372 62.1026 31.9271 63.3048 36.4999 63.3048C50.6733 63.3048 62.1639 51.8142 62.1639 37.6408C62.1639 27.131 55.8437 18.103 46.7986 14.1348Z" fill="#FFE57F"/>
<path d="M36.5 63.875C22.0335 63.875 10.2656 52.1072 10.2656 37.6406C10.2656 23.1741 22.0335 11.4062 36.5 11.4062C50.9665 11.4062 62.7344 23.1741 62.7344 37.6406C62.7344 52.1072 50.9665 63.875 36.5 63.875ZM36.5 12.5469C22.6631 12.5469 11.4062 23.8037 11.4062 37.6406C11.4062 51.4775 22.6631 62.7344 36.5 62.7344C50.3369 62.7344 61.5938 51.4775 61.5938 37.6406C61.5938 23.8037 50.3369 12.5469 36.5 12.5469Z" fill="#37474F"/>
<path d="M41.8348 54.362C40.4147 54.362 38.4528 53.9331 35.8374 53.0514L34.9523 52.7252C34.034 52.4172 33.0782 52.2587 32.1246 52.2587C30.627 52.2587 29.0552 52.7971 27.4492 53.8567L26.9941 54.1579L24.1665 50.2706L24.5634 49.9272C27.5793 47.3243 29.3689 45.0899 29.8833 43.2866C30.0202 42.7881 30.0909 42.2543 30.0909 41.7034C30.0909 40.7087 29.8229 39.3388 29.2286 38.2108H24.5235V34.7889H27.2291C25.9995 32.6947 25.4725 31.5221 25.3345 30.6153C25.2718 30.3405 25.2364 29.9903 25.2364 29.615V29.1553C25.2364 25.9616 26.5424 23.3153 29.118 21.2896C31.2236 19.6277 33.7603 18.7859 36.6586 18.7859C40.3132 18.7859 43.1556 19.995 45.1563 22.3778L45.9695 23.5674C46.8718 25.105 47.3178 27.1889 47.3486 29.972L47.3554 30.5492H42.1941L42.1804 29.9937C42.0663 25.6229 40.2151 23.4979 36.5218 23.4979C34.0021 23.4979 32.2923 24.3476 31.2931 26.095C30.8563 26.8593 30.6361 27.7501 30.6361 28.7436C30.6361 29.8523 30.9521 30.9963 31.5783 32.1894L31.6433 32.3149C31.7596 32.5795 31.9216 32.9 32.1246 33.2798L32.525 33.946L33.0759 34.7878H40.4923V38.2097H34.642C34.9716 39.3879 35.1233 40.557 35.1233 41.2448C35.1233 43.0949 34.1858 45.1298 32.3357 47.3347C32.1452 47.5673 31.9353 47.8114 31.7106 48.0681C32.7041 47.7487 33.7158 47.5879 34.7355 47.5879C35.8579 47.5879 37.181 47.8285 38.665 48.3019C40.2664 48.7684 41.4299 49.0068 42.1097 49.0068C43.2081 49.0068 44.3772 48.5802 45.5852 47.7384L46.0733 47.3985L48.5645 51.3108L48.2348 51.6336C46.3927 53.445 44.2392 54.362 41.8348 54.362Z" fill="white"/>
<path d="M33.2648 51.6887C34.2743 51.6887 35.2826 51.8529 36.2875 52.1905L37.1589 52.5111C39.6934 53.3654 41.6313 53.792 42.975 53.792C45.2323 53.792 47.2329 52.9388 48.9747 51.2279L47.0504 48.2075C45.7387 49.1223 44.4715 49.5785 43.2499 49.5785C42.5164 49.5785 41.3119 49.3355 39.6318 48.8462C38.1969 48.3888 36.9456 48.1585 35.8757 48.1585C33.9549 48.1585 32.0911 48.7538 30.2912 49.9447C31.4204 48.8143 32.1687 47.8231 32.8725 46.9688C34.6427 44.8597 35.3602 42.9675 35.3602 41.2885V41.2463C35.3602 40.4193 35.4674 38.9525 35.0077 37.6407H39.9215V35.3595H33.9082L33.1759 34.2405L32.763 33.5516C32.5497 33.1546 32.2428 32.8204 32.1219 32.5444L31.9372 32.4988V32.4543C31.9372 31.1711 30.7965 29.9506 30.7965 28.7895V28.7439C30.7965 27.6432 31.2471 26.6679 31.7341 25.8125C32.8325 23.8882 34.8423 22.9278 37.5593 22.9278C41.5891 22.9278 43.7677 24.9547 43.8909 29.6564H47.9185C47.8888 27.001 47.4622 25.2946 46.6375 23.8882L45.8585 22.7613C43.9662 20.504 41.2948 19.3907 37.8444 19.3907H37.7988C35.0214 19.3907 32.8382 20.1664 30.825 21.7541C28.3807 23.6772 25.4253 27.1379 27.2526 31.6696C27.5879 32.5 27.9712 33.0395 29.3719 35.3584H26.234V37.6396H30.7007C31.4353 38.8612 31.9372 40.4513 31.9372 41.609V41.6546C31.9372 41.6865 31.9372 41.7014 31.9372 41.7014C31.9372 42.3093 31.7923 42.8899 31.6406 43.4408C31.0908 45.3639 29.2247 47.668 26.1108 50.3564L28.2917 53.3779C30.0027 52.251 31.6474 51.6887 33.2648 51.6887Z" fill="#FFE57F"/>
<path d="M36.7053 19.3561C40.1557 19.3561 42.827 20.4876 44.7193 22.7449L45.4984 23.889C46.323 25.2942 46.7496 27.0017 46.7793 29.6571H42.7506C42.6286 24.9554 40.5515 22.9285 36.5217 22.9285C33.8035 22.9285 31.8964 23.8901 30.798 25.8132C30.3098 26.6686 30.0646 27.6439 30.0646 28.7446V28.7903C30.0646 29.9514 30.3999 31.1718 31.0718 32.455V32.4995L31.1185 32.544C31.2383 32.82 31.4082 33.1542 31.6204 33.5512L32.0333 34.2401L32.7656 35.3591H39.9219V37.6403H33.8663C34.3248 38.952 34.5529 40.42 34.5529 41.2459V41.288C34.5529 42.9682 33.669 44.8605 31.8987 46.9683C31.1961 47.8227 30.2802 48.8139 29.1509 49.9442C30.9508 48.7534 32.8158 48.158 34.7354 48.158C35.8053 48.158 37.0566 48.3873 38.4915 48.8458C40.1717 49.3351 41.3762 49.5781 42.1096 49.5781C43.3312 49.5781 44.5984 49.1218 45.9101 48.2071L47.8344 51.2274C46.0938 52.9384 44.0931 53.7915 41.8347 53.7915C40.491 53.7915 38.5531 53.365 36.0186 52.5106L35.1472 52.1901C34.1412 51.8514 33.1329 51.6882 32.1245 51.6882C30.5071 51.6882 28.8453 52.2506 27.1343 53.3809L24.9363 50.3594C28.0491 47.671 29.8832 45.3658 30.4307 43.4438C30.5824 42.8929 30.66 42.3123 30.66 41.7044C30.66 41.7044 30.66 41.6895 30.66 41.6576V41.612C30.66 40.4531 30.2938 38.8642 29.5593 37.6426H25.0937V35.3614H28.2327C26.8309 33.0425 26.1385 31.6555 25.8979 30.532C25.0196 26.428 27.0271 23.662 29.4715 21.74C31.4858 20.15 33.8823 19.3584 36.6597 19.3584H36.7053V19.3561ZM36.7053 18.2155H36.6597C33.6302 18.2155 30.9737 19.0983 28.7643 20.8424C26.045 22.981 23.8105 25.8086 24.7778 30.7407C24.9648 31.6988 25.3355 32.5987 26.2435 34.2196H23.9531V38.7821H28.8726C29.3175 39.7539 29.5194 40.8535 29.5194 41.6109V41.7033C29.5194 42.2028 29.4555 42.6865 29.3312 43.1416C28.851 44.8251 27.1206 46.9672 24.1904 49.496L23.3965 50.1826L24.0136 51.0301L26.2115 54.0516L26.8537 54.9334L27.7639 54.3322C29.273 53.3342 30.741 52.8289 32.1245 52.8289C33.0154 52.8289 33.9108 52.9783 34.7845 53.2726L35.624 53.5817C38.3295 54.4942 40.3519 54.9334 41.8335 54.9334C44.3931 54.9334 46.6801 53.9604 48.6328 52.0418L49.291 51.3952L48.7948 50.6161L46.8705 47.5957L46.2318 46.592L45.2566 47.2729C44.1456 48.0474 43.0871 48.4386 42.1073 48.4386C41.6773 48.4386 40.7557 48.32 38.8075 47.752C37.295 47.2683 35.9148 47.0185 34.7332 47.0185C34.2324 47.0185 33.7317 47.055 33.2355 47.128C34.8837 45.019 35.6901 43.1016 35.6901 41.2892C35.6901 40.6573 35.5886 39.7516 35.3719 38.7821H39.9219H41.0625V34.2196H33.3849C33.3849 34.2196 31.2714 31.3692 31.2075 28.7903C31.1835 27.8481 31.398 27.0645 31.7915 26.379C32.6778 24.8243 34.2267 24.0692 36.5228 24.0692C38.8189 24.0692 41.4743 24.7444 41.6111 30.0107L41.6396 30.7977H47.9336L47.9199 29.9662C47.8868 27.0815 47.4169 24.9041 46.4816 23.3118L46.4622 23.2787L46.4394 23.2479L45.6615 22.1039L45.6284 22.0559L45.593 22.0126C43.4795 19.493 40.4899 18.2155 36.7053 18.2155Z" fill="#37474F"/>
</svg>
